<?xml version="1.0" encoding="UTF-8"?>
<svg xmlns="http://www.w3.org/2000/svg" width="134" height="47" viewBox="0 0 134 47" fill="none">
  <path d="M29.6665 46.3788C27.3707 46.3788 25.2979 45.5452 23.4429 43.8754L25.8489 39.5759C26.9482 40.6146 28.0896 41.1353 29.2676 41.1353C30.4457 41.1353 31.406 40.7093 32.1433 39.8599C32.8832 39.0106 33.2505 38.0797 33.2505 37.0725C33.2505 36.6307 29.8711 28.0135 23.1123 11.2233H28.7691L36.2652 29.749L43.7613 11.2233H49.4208L37.2544 41.0906C36.5302 42.7289 35.4938 44.02 34.1426 44.9667C32.7914 45.9107 31.2984 46.384 29.6638 46.384" fill="#231F20"></path>
  <path d="M58.7219 15.4727V28.2317C58.7219 29.4282 59.0367 30.3827 59.6638 31.0901C60.2935 31.8001 61.1725 32.1525 62.3033 32.1525C63.4342 32.1525 64.5204 31.6003 65.5568 30.4984L67.7266 34.2325C65.8716 35.9023 63.8199 36.7385 61.5739 36.7385C59.328 36.7385 57.41 35.9575 55.8226 34.3982C54.2353 32.8388 53.4403 30.7351 53.4403 28.0897V15.4727H50.2812V11.2206H53.4403V3.3291H58.7219V11.2206H65.3233V15.4727H58.7219Z" fill="#231F20"></path>
  <path d="M72.4499 21.9468H86.8308C86.8308 19.8353 86.1696 18.2128 84.8498 17.0794C83.5301 15.946 81.9033 15.378 79.9696 15.378C78.0359 15.378 76.299 15.9697 74.7588 17.1504C73.2187 18.3311 72.4473 19.9299 72.4473 21.9468M92.1124 26.1043H72.4499C72.5759 27.9319 73.4076 29.4045 74.9477 30.5221C76.4879 31.6397 78.2484 32.1998 80.2294 32.1998C83.3726 32.1998 85.7629 31.2084 87.3975 29.223L90.4148 32.5311C87.7123 35.3343 84.1913 36.7359 79.8542 36.7359C76.3331 36.7359 73.3394 35.5631 70.873 33.2148C68.4067 30.8666 67.1709 27.7163 67.1709 23.7639C67.1709 19.8116 68.4277 16.6666 70.9439 14.3367C73.4574 12.0042 76.4223 10.8393 79.8332 10.8393C83.2441 10.8393 86.1433 11.8701 88.5336 13.9344C90.9238 15.9986 92.1176 18.8413 92.1176 22.4649V26.1043H92.1124Z" fill="#231F20"></path>
  <path d="M112.397 28.847C112.397 31.24 111.534 33.1543 109.805 34.5901C108.075 36.0232 105.858 36.7411 103.156 36.7411C101.332 36.7411 99.438 36.4098 97.4754 35.7498C95.5102 35.0871 93.7733 34.1588 92.2646 32.9624L94.8097 28.8522C97.7326 31.0585 100.561 32.1603 103.298 32.1603C104.491 32.1603 105.436 31.8842 106.126 31.3346C106.819 30.7824 107.162 30.0829 107.162 29.2309C107.162 27.9713 105.496 26.8353 102.164 25.8282C101.912 25.7335 101.723 25.6704 101.597 25.6388C96.3787 24.2215 93.7707 21.8574 93.7707 18.5494C93.7707 16.2169 94.6733 14.3525 96.481 12.9482C98.2888 11.5467 100.64 10.8445 103.531 10.8445C105.711 10.8445 107.8 11.3284 109.802 12.2935C109.248 13.6767 108.595 15.0178 107.842 16.2695C106.346 15.6147 104.767 15.286 103.106 15.286C101.849 15.286 100.826 15.5148 100.041 15.9723C99.2544 16.4299 98.8634 17.1136 98.8634 18.0287C98.8634 18.8465 99.2727 19.4461 100.089 19.8247C100.655 20.1087 101.448 20.377 102.471 20.6294C103.492 20.8818 104.397 21.1343 105.181 21.3841C105.969 21.6365 106.729 21.9205 107.469 22.2361C108.207 22.5517 109.002 22.9908 109.852 23.5588C111.549 24.6922 112.397 26.4567 112.397 28.8522" fill="#231F20"></path>
  <path fill-rule="evenodd" clip-rule="evenodd" d="M123.324 16.7428C121.443 15.6725 118.759 15.2544 115.595 15.7278C113.21 16.0801 110.799 16.8243 108.687 17.9472C110.04 15.9723 111.051 13.6477 111.68 11.3179C112.517 8.22281 112.418 5.50114 111.575 3.50262C111.575 3.50262 114.228 5.28288 116.823 5.96659C119.42 6.65029 121.485 6.53196 121.485 6.53196C121.485 6.53196 121.123 8.56729 121.498 11.2364C121.871 13.9002 123.324 16.7454 123.324 16.7454" fill="#F7AB1A"></path>
  <path fill-rule="evenodd" clip-rule="evenodd" d="M133.964 7.10789C132.209 6.90015 130.054 7.43659 127.822 8.79611C126.135 9.81904 124.555 11.1444 123.319 12.6617C123.715 10.7447 123.742 8.67252 123.479 6.7187C123.13 4.12326 122.196 2.1037 120.932 0.865148C120.932 0.865148 123.492 1.36478 125.662 1.05448C127.835 0.744185 129.351 0 129.351 0C129.351 0 129.724 1.64878 130.849 3.53948C131.972 5.42756 133.966 7.10789 133.966 7.10789" fill="#0275E0"></path>
  <path d="M5.27901 36.3599H0V3.21075H5.27901V21.8995L15.4645 11.218H22.2548L12.7305 21.1895L22.9605 36.3599H16.5481L9.09921 25.3496L5.27901 29.2231V36.3599Z" fill="#231F20"></path>
</svg>
